<?xml version="1.0" encoding="utf-8"?><!-- Uploaded to: SVG Repo, www.svgrepo.com, Generator: SVG Repo Mixer Tools -->
<svg fill="#000000" width="800px" height="800px" viewBox="0 0 16 16" id="request-refund-16px" xmlns="http://www.w3.org/2000/svg">
  <path id="Path_45" data-name="Path 45" d="M-16,11a2,2,0,0,0,2-2,2,2,0,0,0-2-2,2,2,0,0,0-2,2A2,2,0,0,0-16,11Zm0-3a1,1,0,0,1,1,1,1,1,0,0,1-1,1,1,1,0,0,1-1-1A1,1,0,0,1-16,8Zm2.5,4h-5A2.5,2.5,0,0,0-21,14.5,1.5,1.5,0,0,0-19.5,16h7A1.5,1.5,0,0,0-11,14.5,2.5,2.5,0,0,0-13.5,12Zm1,3h-7a.5.5,0,0,1-.5-.5A1.5,1.5,0,0,1-18.5,13h5A1.5,1.5,0,0,1-12,14.5.5.5,0,0,1-12.5,15Zm5-15h-7A2.5,2.5,0,0,0-17,2.5v3a.5.5,0,0,0,.5.5.5.5,0,0,0,.5-.5v-3A1.5,1.5,0,0,1-14.5,1h3V2A1.5,1.5,0,0,0-13,3.5,1.5,1.5,0,0,0-11.5,5V6h-1a.5.5,0,0,0-.5.5.5.5,0,0,0,.5.5h1v.5A.5.5,0,0,0-11,8a.5.5,0,0,0,.5-.5V7A1.5,1.5,0,0,0-9,5.5,1.5,1.5,0,0,0-10.5,4V3h1A.5.5,0,0,0-9,2.5.5.5,0,0,0-9.5,2h-1V1h3A1.5,1.5,0,0,1-6,2.5v5A1.5,1.5,0,0,1-7.5,9h-3a.5.5,0,0,0-.354.146L-12,10.293V9.5a.5.5,0,0,0-.5-.5.5.5,0,0,0-.5.5v2a.5.5,0,0,0,.309.462A.489.489,0,0,0-12.5,12a.5.5,0,0,0,.354-.146L-10.293,10H-7.5A2.5,2.5,0,0,0-5,7.5v-5A2.5,2.5,0,0,0-7.5,0ZM-10,5.5a.5.5,0,0,1-.5.5V5A.5.5,0,0,1-10,5.5ZM-11.5,4a.5.5,0,0,1-.5-.5.5.5,0,0,1,.5-.5Z" transform="translate(21)"/>
</svg>