<?xml version="1.0" encoding="utf-8"?>

<!-- Uploaded to: SVG Repo, www.svgrepo.com, Generator: SVG Repo Mixer Tools -->
<svg version="1.1" id="Icons" xmlns="http://www.w3.org/2000/svg" xmlns:xlink="http://www.w3.org/1999/xlink" 
	 viewBox="0 0 32 32" xml:space="preserve">
<style type="text/css">
	.st0{fill:none;stroke:#000000;stroke-width:2;stroke-linecap:round;stroke-linejoin:round;stroke-miterlimit:10;}
	.st1{fill:none;stroke:#000000;stroke-width:2;stroke-linecap:round;stroke-linejoin:round;}
	.st2{fill:none;stroke:#000000;stroke-width:2;stroke-linecap:round;stroke-linejoin:round;stroke-dasharray:5.2066,0;}
</style>
<circle class="st0" cx="6.8" cy="6.8" r="2"/>
<circle class="st0" cx="6.8" cy="25.2" r="2"/>
<circle class="st0" cx="25.2" cy="25.2" r="2"/>
<circle class="st0" cx="25.2" cy="6.8" r="2"/>
<path class="st0" d="M12.5,12.6L12.5,12.6c-1.4,0-2.5,1.2-2.5,2.6v0c0,1.4,1.1,2.6,2.5,2.6h0c2.2,0,4.4,0.5,6.4,1.5l2,1v-5.8V10
	l-2,1C17,12,14.8,12.6,12.5,12.6z"/>
<polyline class="st0" points="11,17.2 13.4,22 15.9,22 15.9,12.6 "/>
<path class="st0" d="M5.5,23.7C3.9,21.5,3,18.9,3,16c0-2.9,0.9-5.5,2.5-7.7"/>
<path class="st0" d="M23.7,26.5C21.5,28.1,18.9,29,16,29c-2.9,0-5.5-0.9-7.7-2.5"/>
<path class="st0" d="M26.6,8.4c1.5,2.1,2.4,4.8,2.4,7.6c0,2.9-0.9,5.5-2.5,7.7"/>
<path class="st0" d="M8.3,5.5C10.5,3.9,13.1,3,16,3c2.9,0,5.5,0.9,7.7,2.5"/>
</svg>