<svg xmlns="http://www.w3.org/2000/svg" xmlns:xlink="http://www.w3.org/1999/xlink" version="1.1" width="256" height="256" viewBox="0 0 256 256" xml:space="preserve">

<defs>
</defs>
<g style="stroke: none; stroke-width: 0; stroke-dasharray: none; stroke-linecap: butt; stroke-linejoin: miter; stroke-miterlimit: 10; fill: none; fill-rule: nonzero; opacity: 1;" transform="translate(1.4065934065934016 1.4065934065934016) scale(2.81 2.81)" >
	<path d="M 37.689 36.621 c -10.097 0 -18.311 -8.214 -18.311 -18.311 S 27.592 0 37.689 0 C 47.786 0 56 8.214 56 18.311 S 47.786 36.621 37.689 36.621 z" style="stroke: none; stroke-width: 1; stroke-dasharray: none; stroke-linecap: butt; stroke-linejoin: miter; stroke-miterlimit: 10; fill: rgb(0,0,0); fill-rule: nonzero; opacity: 1;" transform=" matrix(1 0 0 1 0 0) " stroke-linecap="round" />
	<path d="M 77.215 58.707 h -6.429 c -0.867 0 -1.572 -0.705 -1.572 -1.572 V 56.79 c 0 -1.854 -1.508 -3.361 -3.361 -3.361 H 52.332 c -1.854 0 -3.361 1.508 -3.361 3.361 v 0.345 c 0 0.867 -0.705 1.572 -1.572 1.572 H 40.97 c -2.536 0 -4.599 2.063 -4.599 4.6 V 85.4 c 0 2.536 2.063 4.6 4.599 4.6 h 36.245 c 2.536 0 4.599 -2.063 4.599 -4.6 V 63.307 C 81.813 60.771 79.751 58.707 77.215 58.707 z M 59.092 85.154 c -5.699 0 -10.336 -4.637 -10.336 -10.336 s 4.637 -10.336 10.336 -10.336 s 10.336 4.637 10.336 10.336 S 64.791 85.154 59.092 85.154 z M 73.412 68.943 c -1.378 0 -2.5 -1.122 -2.5 -2.5 c 0 -1.379 1.122 -2.5 2.5 -2.5 c 1.379 0 2.5 1.122 2.5 2.5 C 75.913 67.821 74.791 68.943 73.412 68.943 z" style="stroke: none; stroke-width: 1; stroke-dasharray: none; stroke-linecap: butt; stroke-linejoin: miter; stroke-miterlimit: 10; fill: rgb(0,0,0); fill-rule: nonzero; opacity: 1;" transform=" matrix(1 0 0 1 0 0) " stroke-linecap="round" />
	<path d="M 59.092 68.062 c -3.726 0 -6.756 3.031 -6.756 6.757 c 0 1.103 0.897 2 2 2 s 2 -0.897 2 -2 c 0 -1.521 1.236 -2.757 2.756 -2.757 c 1.103 0 2 -0.897 2 -2 S 60.194 68.062 59.092 68.062 z" style="stroke: none; stroke-width: 1; stroke-dasharray: none; stroke-linecap: butt; stroke-linejoin: miter; stroke-miterlimit: 10; fill: rgb(0,0,0); fill-rule: nonzero; opacity: 1;" transform=" matrix(1 0 0 1 0 0) " stroke-linecap="round" />
	<path d="M 30.371 85.4 V 63.307 c 0 -5.845 4.755 -10.6 10.599 -10.6 h 2.939 c 1.52 -3.122 4.724 -5.278 8.423 -5.278 h 8.943 c -2.719 -3.657 -6.242 -6.683 -10.382 -8.772 c -0.313 -0.158 -0.689 -0.14 -0.987 0.049 c -3.669 2.338 -7.894 3.575 -12.216 3.575 s -8.547 -1.236 -12.215 -3.575 c -0.298 -0.19 -0.673 -0.208 -0.988 -0.049 C 14.432 43.729 8.186 53.828 8.186 65.013 v 20.395 c 0 2.532 2.061 4.593 4.593 4.593 h 18.657 C 30.76 88.606 30.371 87.05 30.371 85.4 z" style="stroke: none; stroke-width: 1; stroke-dasharray: none; stroke-linecap: butt; stroke-linejoin: miter; stroke-miterlimit: 10; fill: rgb(0,0,0); fill-rule: nonzero; opacity: 1;" transform=" matrix(1 0 0 1 0 0) " stroke-linecap="round" />
</g>
</svg>